<?xml version="1.0" encoding="UTF-8"?>
<svg id="Capa_1" data-name="Capa 1" xmlns="http://www.w3.org/2000/svg" viewBox="0 0 930.77 893.36">
  <defs>
    <style>
      .cls-1 {
        fill: #fff;
      }
    </style>
  </defs>
  <path class="cls-1" d="M930.77,19.46l-120.79,126.67-163.7,171.49.15.15,18.96,38.21c11.02,28.21,16.9,58.93,16.9,90.67v2.5c0,124.02-87.14,229.53-218.36,229.53s-219.69-108.01-219.69-232.03v-2.35c0-124.02,87.14-229.53,217.19-229.53,50.84,0,95.52,16.16,131.08,43.35,16.02,12.05,20.86,15.05,33.2,31.21l162.43-161.09L902.37,6.83,508.8.46c-15.23-.7-29.31-.4-44.89-.4-11.17,0-22.04.29-32.92,1.18h-1.32v.15C181.92,17.55,0,210.79,0,446.64v2.5c0,246.73,196.32,444.22,461.42,444.22s450.84-187.21,463.18-422.77c.59-7.94.74-15.87.74-23.95v-2.35c0-3.41-.16-6.79-.24-10.18l5.67-414.65h0Z"/>
</svg>